<svg width="96" height="96" viewBox="0 0 96 96" xmlns="http://www.w3.org/2000/svg" fill="none">
  <rect x="6" y="6" width="84" height="84" rx="18" fill="#ecfdf3" stroke="#bbf7d0" stroke-width="2"/>
  <path d="M22 68c6-10 14-10 20 0 4-8 10-8 14 0 6-10 14-10 20 0" stroke="#22c55e" stroke-width="6" stroke-linecap="round"/>
  <path d="M26 62c4-10 10-18 10-34m12 34c3-12 6-18 6-34m12 34c2-12 4-18 4-34" stroke="#16a34a" stroke-width="4" stroke-linecap="round"/>
  <circle cx="30" cy="30" r="6" fill="#4ade80"/>
  <circle cx="50" cy="26" r="5" fill="#86efac"/>
  <circle cx="66" cy="32" r="6" fill="#22c55e"/>
</svg>
