<svg width="640" height="480" viewBox="0 0 640 480" xmlns="http://www.w3.org/2000/svg" role="img" aria-label="Waniliowy klasyk">
  <defs>
    <linearGradient id="bg" x1="0%" y1="0%" x2="100%" y2="100%">
      <stop offset="0%" stop-color="#1b1b1f" />
      <stop offset="100%" stop-color="#101014" />
    </linearGradient>
    <linearGradient id="cakeTop" x1="0%" y1="0%" x2="100%" y2="0%">
      <stop offset="0%" stop-color="#ffe9d6" />
      <stop offset="100%" stop-color="#ffe0c2" />
    </linearGradient>
    <linearGradient id="cakeSide" x1="0%" y1="0%" x2="0%" y2="100%">
      <stop offset="0%" stop-color="#ffc4d6" />
      <stop offset="100%" stop-color="#ff9ab0" />
    </linearGradient>
  </defs>
  <rect width="640" height="480" rx="28" fill="url(#bg)" />
  <ellipse cx="320" cy="340" rx="210" ry="24" fill="#0c0c0f" opacity="0.6" />
  <ellipse cx="320" cy="190" rx="180" ry="46" fill="url(#cakeTop)" />
  <rect x="140" y="190" width="360" height="130" rx="70" fill="url(#cakeSide)" />
  <ellipse cx="320" cy="190" rx="180" ry="46" fill="url(#cakeTop)" />
  <path d="M150 190c60 48 360 48 420 0" fill="none" stroke="#ffccd5" stroke-width="16" stroke-linecap="round" />
  <circle cx="280" cy="150" r="24" fill="#fefefe" stroke="#ff8fab" stroke-width="6" />
  <circle cx="360" cy="160" r="22" fill="#fefefe" stroke="#ffb3c6" stroke-width="6" />
  <circle cx="320" cy="130" r="18" fill="#fefefe" stroke="#ff9ec4" stroke-width="6" />
  <circle cx="250" cy="200" r="14" fill="#ff5d8f" />
  <circle cx="302" cy="208" r="12" fill="#ffd166" />
  <circle cx="360" cy="200" r="14" fill="#8ae6ff" />
  <circle cx="410" cy="210" r="13" fill="#a0ff8f" />
  <text x="320" y="380" text-anchor="middle" font-family="'Inter', 'Segoe UI', sans-serif" font-weight="700" font-size="28" fill="#f1f1f1" opacity="0.9">Waniliowy klasyk</text>
</svg>
